<svg width="443" height="141" viewBox="0 0 443 141" fill="none" xmlns="http://www.w3.org/2000/svg">
<path d="M46.8002 32.1511C52.5589 32.1511 57.7589 33.6575 62.4003 36.6703C67.0416 39.5971 70.6945 43.8581 73.359 49.4533C76.0235 55.0485 77.3557 61.6337 77.3557 69.2088C77.3557 76.7839 76.0235 83.4121 73.359 89.0934C70.6945 94.6886 67.0416 98.9927 62.4003 102.006C57.7589 104.932 52.5589 106.396 46.8002 106.396C41.7291 106.396 37.3456 105.32 33.6497 103.168C29.9538 100.929 27.2034 97.8736 25.3985 94V105.492H0V9.94231H25.3985V44.5467C27.2034 40.6731 29.9538 37.6603 33.6497 35.5082C37.3456 33.2701 41.7291 32.1511 46.8002 32.1511ZM38.42 54.3599C34.6382 54.3599 31.501 55.6941 29.0084 58.3626C26.5158 61.0311 25.2695 64.6465 25.2695 69.2088C25.2695 73.8571 26.5158 77.5156 29.0084 80.1841C31.501 82.8526 34.6382 84.1868 38.42 84.1868C42.3737 84.1868 45.5539 82.8956 47.9605 80.3132C50.4531 77.6447 51.6994 73.9432 51.6994 69.2088C51.6994 64.5604 50.4531 60.9451 47.9605 58.3626C45.5539 55.6941 42.3737 54.3599 38.42 54.3599Z" fill="#2B2B2B"/>
<path d="M112.902 46.6126C112.902 46.6126 112.902 68.8214 112.902 74.2445V105.492H87.5036V33.0549H112.902V46.6126Z" fill="#2B2B2B"/>
<path d="M182.042 33.0549V105.492H156.644V33.0549H182.042Z" fill="#2B2B2B"/>
<path d="M222.869 32.1511C227.94 32.1511 232.323 33.2701 236.019 35.5082C239.801 37.6603 242.594 40.6731 244.399 44.5467V33.0549H269.669V104.717C269.669 111.431 268.38 117.5 265.801 122.923C263.223 128.432 259.226 132.822 253.811 136.093C248.396 139.364 241.563 141 233.312 141C222.052 141 213.07 138.375 206.366 133.124C199.748 127.873 195.88 120.685 194.763 111.56H219.645C220.247 113.971 221.536 115.821 223.513 117.113C225.49 118.404 228.155 119.049 231.507 119.049C240.102 119.049 244.399 114.272 244.399 104.717V94C242.594 97.8736 239.801 100.929 236.019 103.168C232.323 105.32 227.94 106.396 222.869 106.396C217.11 106.396 211.91 104.932 207.269 102.006C202.627 98.9927 198.974 94.6886 196.31 89.0934C193.645 83.4121 192.313 76.7839 192.313 69.2088C192.313 61.6337 193.645 55.0485 196.31 49.4533C198.974 43.8581 202.627 39.5971 207.269 36.6703C211.91 33.6575 217.11 32.1511 222.869 32.1511ZM231.249 54.3599C227.295 54.3599 224.072 55.6941 221.579 58.3626C219.173 60.9451 217.969 64.5604 217.969 69.2088C217.969 73.9432 219.173 77.6447 221.579 80.3132C224.072 82.8956 227.295 84.1868 231.249 84.1868C235.031 84.1868 238.168 82.8526 240.66 80.1841C243.153 77.5156 244.399 73.8571 244.399 69.2088C244.399 64.6465 243.153 61.0311 240.66 58.3626C238.168 55.6941 235.031 54.3599 231.249 54.3599Z" fill="#2B2B2B"/>
<path d="M310.372 32.1511C315.443 32.1511 319.827 33.2701 323.523 35.5082C327.305 37.6603 330.098 40.6731 331.903 44.5467V33.0549H357.172V104.717C357.172 111.431 355.883 117.5 353.305 122.923C350.726 128.432 346.729 132.822 341.315 136.093C335.9 139.364 329.067 141 320.815 141C309.556 141 300.574 138.375 293.87 133.124C287.251 127.873 283.384 120.685 282.266 111.56H307.149C307.751 113.971 309.04 115.821 311.017 117.113C312.994 118.404 315.658 119.049 319.01 119.049C327.605 119.049 331.903 114.272 331.903 104.717V94C330.098 97.8736 327.305 100.929 323.523 103.168C319.827 105.32 315.443 106.396 310.372 106.396C304.614 106.396 299.414 104.932 294.772 102.006C290.131 98.9927 286.478 94.6886 283.813 89.0934C281.149 83.4121 279.817 76.7839 279.817 69.2088C279.817 61.6337 281.149 55.0485 283.813 49.4533C286.478 43.8581 290.131 39.5971 294.772 36.6703C299.414 33.6575 304.614 32.1511 310.372 32.1511ZM318.752 54.3599C314.799 54.3599 311.576 55.6941 309.083 58.3626C306.676 60.9451 305.473 64.5604 305.473 69.2088C305.473 73.9432 306.676 77.6447 309.083 80.3132C311.576 82.8956 314.799 84.1868 318.752 84.1868C322.534 84.1868 325.672 82.8526 328.164 80.1841C330.657 77.5156 331.903 73.8571 331.903 69.2088C331.903 64.6465 330.657 61.0311 328.164 58.3626C325.672 55.6941 322.534 54.3599 318.752 54.3599Z" fill="#2B2B2B"/>
<path d="M405.225 32.1511C412.445 32.1511 418.891 33.6575 424.564 36.6703C430.322 39.5971 434.835 43.9011 438.101 49.5824C441.367 55.1777 443 61.7198 443 69.2088C443 76.7839 441.367 83.369 438.101 88.9643C434.835 94.5595 430.322 98.8635 424.564 101.876C418.891 104.889 412.445 106.396 405.225 106.396C398.005 106.396 391.516 104.889 385.757 101.876C379.998 98.8635 375.486 94.5595 372.22 88.9643C368.953 83.369 367.32 76.7839 367.32 69.2088C367.32 61.6337 368.953 55.0485 372.22 49.4533C375.486 43.8581 379.998 39.5971 385.757 36.6703C391.516 33.6575 398.005 32.1511 405.225 32.1511ZM405.225 54.1017C401.701 54.1017 398.778 55.3929 396.458 57.9753C394.137 60.5577 392.977 64.3022 392.977 69.2088C392.977 74.2015 394.137 77.989 396.458 80.5714C398.778 83.1538 401.701 84.4451 405.225 84.4451C408.663 84.4451 411.542 83.1538 413.863 80.5714C416.183 77.9029 417.344 74.1154 417.344 69.2088C417.344 64.3022 416.183 60.5577 413.863 57.9753C411.542 55.3929 408.663 54.1017 405.225 54.1017Z" fill="#2B2B2B"/>
<path d="M143.909 47.7996C143.909 55.3859 137.768 61.5358 130.193 61.5358C122.619 61.5358 116.478 55.3859 116.478 47.7996C116.478 40.2132 122.619 34.0633 130.193 34.0633C137.768 34.0633 143.909 40.2132 143.909 47.7996Z" fill="#8D8D8F"/>
<path d="M158.707 3.7445C155.956 6.15476 154.581 9.25366 154.581 13.0412C154.581 16.6566 155.956 19.6694 158.707 22.0797C161.457 24.4899 165.067 25.6951 169.537 25.6951C173.92 25.6951 177.444 24.4899 180.108 22.0797C182.859 19.6694 184.234 16.6566 184.234 13.0412C184.234 9.25366 182.902 6.15476 180.237 3.7445C177.573 1.24817 174.006 0 169.537 0C165.067 0 161.457 1.24817 158.707 3.7445Z" fill="#8D8D8F"/>
</svg>
